<?xml version="1.0" encoding="UTF-8" standalone="no"?>
<!-- Created with Inkscape (http://www.inkscape.org/) -->

<svg
   xmlns:dc="http://purl.org/dc/elements/1.1/"
   xmlns:cc="http://creativecommons.org/ns#"
   xmlns:rdf="http://www.w3.org/1999/02/22-rdf-syntax-ns#"
   xmlns:svg="http://www.w3.org/2000/svg"
   xmlns="http://www.w3.org/2000/svg"
   xmlns:sodipodi="http://sodipodi.sourceforge.net/DTD/sodipodi-0.dtd"
   xmlns:inkscape="http://www.inkscape.org/namespaces/inkscape"
   width="1024"
   height="128"
   viewBox="0 0 1024 128"
   id="svg0"
   version="1.1"
   inkscape:version="0.91 r13725"
   sodipodi:docname="logo_text.svg"
   inkscape:export-filename="logo_text.png"
   inkscape:export-xdpi="90"
   inkscape:export-ydpi="90">
  <defs
     id="defs0" />
  <sodipodi:namedview
     id="base"
     pagecolor="#ffffff"
     bordercolor="#666666"
     borderopacity="1.0"
     inkscape:pageopacity="0.0"
     inkscape:pageshadow="2"
     inkscape:zoom="1"
     inkscape:cx="378.75042"
     inkscape:cy="281.8043"
     inkscape:document-units="px"
     inkscape:current-layer="svg0"
     showgrid="true"
     units="px"
     borderlayer="true"
     inkscape:object-paths="true"
     inkscape:snap-intersection-paths="true"
     inkscape:object-nodes="true"
     inkscape:snap-smooth-nodes="true"
     inkscape:snap-midpoints="true"
     inkscape:window-width="1920"
     inkscape:window-height="1002"
     inkscape:window-x="0"
     inkscape:window-y="0"
     inkscape:window-maximized="1"
     inkscape:showpageshadow="false"
     showguides="true"
     inkscape:guide-bbox="true">
    <inkscape:grid
       type="xygrid"
       id="grid4136" />
  </sodipodi:namedview>
  <metadata
     id="metadata0">
    <rdf:RDF>
      <cc:Work
         rdf:about="">
        <dc:format>image/svg+xml</dc:format>
        <dc:type
           rdf:resource="http://purl.org/dc/dcmitype/StillImage" />
        <dc:title />
      </cc:Work>
    </rdf:RDF>
  </metadata>
  <g
     inkscape:label="Ebene 0"
     inkscape:groupmode="layer"
     id="layer0"
     transform="translate(0,64)" />
  <g
     id="logo"
     transform="scale(2,2)"
     inkscape:export-filename="./logo_text_black.png"
     inkscape:export-xdpi="90"
     inkscape:export-ydpi="90">
    <path
       inkscape:connector-curvature="0"
       id="rect4138"
       d="M 0,0 0,64 18,64 18,18 41,18 41,0 0,0 Z m 46,0 0,64 18,0 0,-64 -18,0 z m -23,23 0,41 18,0 0,-41 -18,0 z"
       style="opacity:1;fill:#35bf5c;fill-opacity:1;stroke:none;stroke-width:3;stroke-miterlimit:4;stroke-dasharray:none;stroke-opacity:1" />
    <path
       sodipodi:nodetypes="ccccc"
       inkscape:connector-curvature="0"
       id="path4154"
       d="m 64,0 0,64 448,0 0,-64 z"
       style="opacity:0.00100002;fill:#ff00a8;fill-opacity:1;stroke:none;stroke-width:3;stroke-miterlimit:4;stroke-dasharray:none;stroke-opacity:1" />
    <text
       sodipodi:linespacing="125%"
       id="text4141"
       y="50"
       x="288.08337"
       style="font-style:normal;font-variant:normal;font-weight:bold;font-stretch:normal;font-size:50px;line-height:125%;font-family:Quicksand;-inkscape-font-specification:'Quicksand Bold';text-align:center;letter-spacing:0px;word-spacing:0px;text-anchor:middle;fill:#444444;fill-opacity:1;stroke:none;stroke-width:1px;stroke-linecap:butt;stroke-linejoin:miter;stroke-opacity:1"
       xml:space="preserve"><tspan
         y="50"
         x="288.08337"
         id="tspan4143"
         sodipodi:role="line">MANJARO LINUX</tspan></text>
  </g>
  <g
     transform="matrix(2,0,0,2,0,-180)"
     id="g4139"
     inkscape:export-filename="logo_text.png"
     inkscape:export-xdpi="90"
     inkscape:export-ydpi="90">
    <path
       style="opacity:1;fill:#35bf5c;fill-opacity:1;stroke:none;stroke-width:3;stroke-miterlimit:4;stroke-dasharray:none;stroke-opacity:1"
       d="M 0,0 0,64 18,64 18,18 41,18 41,0 0,0 Z m 46,0 0,64 18,0 0,-64 -18,0 z m -23,23 0,41 18,0 0,-41 -18,0 z"
       id="path4141"
       inkscape:connector-curvature="0" />
    <path
       style="opacity:0.00100002;fill:#ff00a8;fill-opacity:1;stroke:none;stroke-width:3;stroke-miterlimit:4;stroke-dasharray:none;stroke-opacity:1"
       d="m 64,0 0,64 448,0 0,-64 z"
       id="path4143"
       inkscape:connector-curvature="0"
       sodipodi:nodetypes="ccccc" />
    <path
       style="font-style:normal;font-variant:normal;font-weight:bold;font-stretch:normal;font-size:50px;line-height:125%;font-family:Quicksand;-inkscape-font-specification:'Quicksand Bold';text-align:center;letter-spacing:0px;word-spacing:0px;text-anchor:middle;fill:#ffffff;fill-opacity:1;stroke:none;stroke-width:1px;stroke-linecap:butt;stroke-linejoin:miter;stroke-opacity:1"
       d="M 605.17188 -152 C 595.57187 -152 586.77187 -147.90078 580.67188 -141.30078 C 574.47187 -134.70078 570.77148 -125.9 570.77148 -116 C 570.77148 -106.1 574.47187 -97.199219 580.67188 -90.699219 C 586.77187 -84.199219 595.57187 -80 605.17188 -80 C 614.37187 -80 623.17227 -84.199219 629.07227 -90.699219 C 635.27227 -97.199219 639.17188 -106.1 639.17188 -116 C 639.17188 -125.9 635.27227 -134.70078 629.07227 -141.30078 C 623.17227 -147.90078 614.37188 -152 605.17188 -152 z M 177.41797 -150 C 174.41797 -150 171.91797 -147.5 171.91797 -144.5 L 171.91797 -85.5 C 171.91797 -82.5 174.41797 -80 177.41797 -80 C 180.51797 -80 183.01758 -82.5 183.01758 -85.5 L 183.01758 -127.59961 L 197.31836 -107.59961 C 198.41836 -106.09961 200.11797 -105.30078 201.91797 -105.30078 L 202.01758 -105.30078 L 202.11914 -105.30078 C 203.91914 -105.30078 205.51914 -106.09961 206.61914 -107.59961 L 221.01758 -127.59961 L 221.01758 -85.5 C 221.01758 -82.5 223.41758 -80 226.51758 -80 C 229.51758 -80 232.11914 -82.5 232.11914 -85.5 L 232.11914 -144.5 C 232.11914 -147.5 229.51758 -149.9 226.51758 -150 L 226.41797 -150 C 224.61797 -150 223.01797 -149.19922 221.91797 -147.69922 L 202.01758 -120.09961 L 182.11914 -147.69922 C 181.11914 -149.19922 179.31875 -150 177.71875 -150 L 177.41797 -150 z M 429.44531 -150 C 426.34531 -150 423.8457 -147.6 423.8457 -144.5 L 423.8457 -104.80078 C 423.8457 -97.300781 417.64492 -91.099609 410.04492 -91.099609 C 403.94492 -91.099609 398.74531 -95.099609 396.94531 -100.59961 C 396.04531 -103.49961 392.94531 -105.09961 389.94531 -104.09961 C 387.14531 -103.29961 385.44531 -100.19922 386.44531 -97.199219 C 389.64531 -87.199219 399.04492 -80 410.04492 -80 C 423.74492 -80 434.94531 -91.100781 434.94531 -104.80078 L 434.94531 -144.5 C 434.94531 -147.6 432.44531 -150 429.44531 -150 z M 517.22852 -150 C 514.12852 -150 511.72852 -147.6 511.72852 -144.5 L 511.72852 -85.5 C 511.72852 -82.5 514.12852 -80 517.22852 -80 C 520.32852 -80 522.83008 -82.5 522.83008 -85.5 L 522.83008 -107.19922 L 534.62891 -107.19922 C 535.52891 -106.99922 538.12852 -106.20078 540.22852 -104.80078 C 541.42852 -104.00078 542.62852 -103.00039 543.22852 -101.90039 C 543.92852 -100.80039 544.32969 -99.499609 544.42969 -97.599609 C 544.42969 -92.099609 545.1293 -88.499609 546.5293 -85.599609 C 547.3293 -84.199609 548.42852 -82.899609 549.72852 -82.099609 C 551.12852 -81.199609 552.62891 -81 553.62891 -81 L 553.72852 -81 C 554.72852 -81 555.52969 -81.200781 555.92969 -81.300781 C 558.82969 -82.300781 560.42969 -85.400781 559.42969 -88.300781 C 558.82969 -90.000781 557.52969 -91.199219 555.92969 -91.699219 C 555.72969 -92.699219 555.4293 -94.599609 555.5293 -97.599609 C 555.5293 -101.79961 554.22852 -105.50039 552.22852 -108.40039 C 551.22852 -109.90039 550.02852 -111.09961 548.72852 -112.09961 C 553.52852 -116.09961 556.5293 -121.9 556.5293 -128.5 C 556.5293 -140.4 547.02891 -150 535.12891 -150 L 517.33008 -150 L 517.22852 -150 z M 694.41016 -150 C 691.31016 -150 688.91016 -147.5 688.91016 -144.5 L 688.91016 -85.5 C 688.91016 -82.5 691.31016 -80 694.41016 -80 L 694.50977 -80 L 694.71094 -80 L 727.11133 -80 C 730.01133 -80 732.61133 -82.5 732.61133 -85.5 C 732.61133 -88.6 730.01133 -91.099609 727.11133 -91.099609 L 700.00977 -91.099609 L 700.00977 -144.5 C 700.00977 -147.5 697.51016 -150 694.41016 -150 z M 751.94727 -150 C 748.84727 -150 746.44727 -147.6 746.44727 -144.5 L 746.44727 -85.5 C 746.44727 -82.4 748.84727 -80 751.94727 -80 C 754.94727 -80 757.54687 -82.4 757.54688 -85.5 L 757.54688 -144.5 C 757.54688 -147.6 754.94727 -150 751.94727 -150 z M 854.08008 -150 C 850.98008 -150 848.58008 -147.6 848.58008 -144.5 L 848.58008 -108.90039 C 848.58008 -93.000391 861.38047 -80 877.48047 -80 C 893.48047 -80 906.38086 -93.000391 906.38086 -108.90039 L 906.38086 -144.5 C 906.38086 -147.6 903.98086 -150 900.88086 -150 C 897.78086 -150 895.28125 -147.6 895.28125 -144.5 L 895.28125 -108.90039 C 895.28125 -99.100391 887.38047 -91.099609 877.48047 -91.099609 C 867.68047 -91.099609 859.68164 -99.100391 859.68164 -108.90039 L 859.68164 -144.5 C 859.68164 -147.6 857.08008 -150 854.08008 -150 z M 273.34766 -149.90039 C 271.14766 -150.00039 268.94883 -148.60039 268.04883 -146.40039 L 245.94727 -87.5 C 244.94727 -84.6 246.34805 -81.400781 249.24805 -80.300781 C 249.84805 -80.100781 250.44844 -80 251.14844 -80 C 253.34844 -80 255.44766 -81.3 256.34766 -83.5 L 261.24805 -96.5 L 285.54883 -96.5 L 290.44727 -83.5 C 291.24727 -81.3 293.34883 -80 295.54883 -80 C 296.24883 -80 296.94727 -80.100781 297.44727 -80.300781 C 300.34727 -81.400781 301.74805 -84.6 300.74805 -87.5 L 278.64844 -146.40039 C 277.74844 -148.60039 275.64766 -150.00039 273.34766 -149.90039 z M 471.98047 -149.90039 C 469.78047 -150.00039 467.58164 -148.60039 466.68164 -146.40039 L 444.58008 -87.5 C 443.58008 -84.6 444.98086 -81.400781 447.88086 -80.300781 C 448.48086 -80.100781 449.08125 -80 449.78125 -80 C 451.98125 -80 454.08047 -81.3 454.98047 -83.5 L 459.88086 -96.5 L 484.18164 -96.5 L 489.08008 -83.5 C 489.88008 -81.3 491.98164 -80 494.18164 -80 C 494.88164 -80 495.58008 -80.100781 496.08008 -80.300781 C 498.98008 -81.400781 500.38086 -84.6 499.38086 -87.5 L 477.28125 -146.40039 C 476.38125 -148.60039 474.28047 -150.00039 471.98047 -149.90039 z M 319.85156 -149.30078 C 318.79805 -149.26621 317.73438 -148.93828 316.79688 -148.30078 C 315.29688 -147.20078 314.4957 -145.39922 314.5957 -143.69922 L 314.5957 -143.59961 L 314.5957 -85.5 C 314.5957 -82.5 316.9957 -80 320.0957 -80 C 322.9957 -80 325.49609 -82.5 325.49609 -85.5 L 325.49609 -127 L 357.49609 -82.599609 C 357.59609 -82.399609 357.79609 -82.2 357.99609 -82 C 358.99609 -80.8 360.4957 -80 362.0957 -80 C 365.0957 -80 367.5957 -82.5 367.5957 -85.5 L 367.5957 -143.59961 C 367.5957 -146.49961 365.0957 -149 362.0957 -149 C 359.0957 -149 356.69727 -146.49961 356.69727 -143.59961 L 356.69727 -102.40039 L 324.39648 -147.09961 C 323.33398 -148.59961 321.60742 -149.3584 319.85156 -149.30078 z M 781.76562 -149.30078 C 780.71211 -149.26621 779.64844 -148.93828 778.71094 -148.30078 C 777.21094 -147.20078 776.40977 -145.39922 776.50977 -143.69922 L 776.50977 -143.59961 L 776.50977 -85.5 C 776.50977 -82.5 778.90977 -80 782.00977 -80 C 784.90977 -80 787.41016 -82.5 787.41016 -85.5 L 787.41016 -127 L 819.41016 -82.599609 C 819.51016 -82.399609 819.71016 -82.2 819.91016 -82 C 820.91016 -80.8 822.40977 -80 824.00977 -80 C 827.00977 -80 829.50977 -82.5 829.50977 -85.5 L 829.50977 -143.59961 C 829.50977 -146.49961 827.00977 -149 824.00977 -149 C 821.00977 -149 818.61133 -146.49961 818.61133 -143.59961 L 818.61133 -102.40039 L 786.31055 -147.09961 C 785.24805 -148.59961 783.52148 -149.3584 781.76562 -149.30078 z M 931.86133 -149.24023 C 930.80488 -149.18691 929.74961 -148.81211 928.84961 -148.09961 C 926.34961 -146.39961 925.84883 -143 927.54883 -140.5 L 946.54883 -114.69922 L 927.54883 -88.699219 C 925.84883 -86.299219 926.34961 -82.799609 928.84961 -81.099609 C 929.74961 -80.399609 930.84883 -80 932.04883 -80 C 933.74883 -80 935.34922 -80.900781 936.44922 -82.300781 L 953.34961 -105.40039 L 970.15039 -82.300781 C 971.25039 -80.900781 972.85039 -80 974.65039 -80 C 975.75039 -80 976.84961 -80.399609 977.84961 -81.099609 C 980.34961 -82.799609 980.74883 -86.299219 979.04883 -88.699219 L 960.04883 -114.69922 L 979.04883 -140.5 C 980.74883 -143 980.34961 -146.39961 977.84961 -148.09961 C 975.34961 -149.99961 972.05039 -149.50039 970.15039 -146.90039 L 953.34961 -123.90039 L 936.44922 -146.90039 C 935.38672 -148.52539 933.62207 -149.3291 931.86133 -149.24023 z M 605.17188 -140.59961 C 611.17188 -140.59961 616.7707 -138 620.9707 -133.5 C 625.0707 -129.1 627.77148 -122.8 627.77148 -116 C 627.77148 -109.2 625.0707 -102.89961 620.9707 -98.599609 C 616.7707 -94.099609 611.17188 -91.400391 605.17188 -91.400391 C 598.77187 -91.400391 593.1707 -94.099609 588.9707 -98.599609 C 584.7707 -102.89961 582.17188 -109.2 582.17188 -116 C 582.17188 -122.8 584.7707 -129.1 588.9707 -133.5 C 593.1707 -138 598.77187 -140.59961 605.17188 -140.59961 z M 522.83008 -138.90039 L 535.12891 -138.90039 C 540.82891 -138.90039 545.42969 -134.3 545.42969 -128.5 C 545.42969 -122.9 540.82891 -118.30078 535.12891 -118.30078 L 522.83008 -118.30078 L 522.83008 -138.90039 z M 273.34766 -129 L 281.44727 -107.5 L 265.24805 -107.5 L 273.34766 -129 z M 471.98047 -129 L 480.08008 -107.5 L 463.88086 -107.5 L 471.98047 -129 z "
       transform="matrix(0.5,0,0,0.5,0,90)"
       id="text4145" />
  </g>
</svg>
