<svg xmlns="http://www.w3.org/2000/svg" width="1024" height="128" viewBox="0 0 1024 128">
  <path d="M0 0v128h36V36h46V0H0zm92 0v128h36V0H92zM46 46v82h36V46H46z" fill="#35bf5c"/>
  <path d="M128 0v128h896V0z" opacity=".001" fill="#ff00a8"/>
  <text y="50" x="288.083" style="line-height:125%;-inkscape-font-specification:'Quicksand Bold';text-align:center" font-weight="bold" font-size="50" font-family="Quicksand" letter-spacing="0" word-spacing="0" text-anchor="middle" fill="#444" transform="scale(2)">
    <tspan y="50" x="288.083">MANJARO LINUX</tspan>
  </text>
  <g>
    <path d="M0-180v128h36v-92h46v-36H0zm92 0v128h36v-128H92zm-46 46v82h36v-82H46z" fill="#35bf5c"/>
    <path d="M128-180v128h896v-128z" opacity=".001" fill="#ff00a8"/>
    <path style="line-height:125%;-inkscape-font-specification:'Quicksand Bold';text-align:center" d="M605.172-152c-9.6 0-18.4 4.1-24.5 10.7-6.2 6.6-9.9 15.4-9.9 25.3s3.7 18.8 9.9 25.3c6.1 6.5 14.9 10.7 24.5 10.7 9.2 0 18-4.2 23.9-10.7 6.2-6.5 10.1-15.4 10.1-25.3s-3.9-18.7-10.1-25.3c-5.9-6.6-14.7-10.7-23.9-10.7zm-427.754 2c-3 0-5.5 2.5-5.5 5.5v59c0 3 2.5 5.5 5.5 5.5 3.1 0 5.6-2.5 5.6-5.5v-42.1l14.3 20c1.1 1.5 2.8 2.3 4.6 2.3h.2c1.8 0 3.4-.8 4.5-2.3l14.4-20v42.1c0 3 2.4 5.5 5.5 5.5 3 0 5.6-2.5 5.6-5.5v-59c0-3-2.6-5.4-5.6-5.5h-.1c-1.8 0-3.4.8-4.5 2.3l-19.9 27.6-19.9-27.6c-1-1.5-2.8-2.3-4.4-2.3h-.3zm252.027 0c-3.1 0-5.6 2.4-5.6 5.5v39.7c0 7.5-6.2 13.7-13.8 13.7-6.1 0-11.3-4-13.1-9.5-.9-2.9-4-4.5-7-3.5-2.8.8-4.5 3.9-3.5 6.9 3.2 10 12.6 17.2 23.6 17.2 13.7 0 24.9-11.1 24.9-24.8v-39.7c0-3.1-2.5-5.5-5.5-5.5zm87.784 0c-3.1 0-5.5 2.4-5.5 5.5v59c0 3 2.4 5.5 5.5 5.5s5.6-2.5 5.6-5.5v-21.7h11.8c.9.2 3.5 1 5.6 2.4 1.2.8 2.4 1.8 3 2.9.7 1.1 1.1 2.4 1.2 4.3 0 5.5.7 9.1 2.1 12 .8 1.4 1.9 2.7 3.2 3.5 1.4.9 2.9 1.1 3.9 1.1h.1c1 0 1.8-.2 2.2-.3 2.9-1 4.5-4.1 3.5-7-.6-1.7-1.9-2.9-3.5-3.4-.2-1-.5-2.9-.4-5.9 0-4.2-1.3-7.9-3.3-10.8-1-1.5-2.2-2.7-3.5-3.7 4.8-4 7.8-9.8 7.8-16.4 0-11.9-9.5-21.5-21.4-21.5H517.23zm177.18 0c-3.1 0-5.5 2.5-5.5 5.5v59c0 3 2.4 5.5 5.5 5.5H727.11c2.9 0 5.5-2.5 5.5-5.5 0-3.1-2.6-5.6-5.5-5.6h-27.1v-53.4c0-3-2.5-5.5-5.6-5.5zm57.537 0c-3.1 0-5.5 2.4-5.5 5.5v59c0 3.1 2.4 5.5 5.5 5.5 3 0 5.6-2.4 5.6-5.5v-59c0-3.1-2.6-5.5-5.6-5.5zm102.133 0c-3.1 0-5.5 2.4-5.5 5.5v35.6c0 15.9 12.8 28.9 28.9 28.9 16 0 28.9-13 28.9-28.9v-35.6c0-3.1-2.4-5.5-5.5-5.5s-5.6 2.4-5.6 5.5v35.6c0 9.8-7.9 17.8-17.8 17.8-9.8 0-17.798-8-17.798-17.8v-35.6c0-3.1-2.602-5.5-5.602-5.5zm-580.732.1c-2.2-.1-4.4 1.3-5.3 3.5l-22.1 58.9c-1 2.9.4 6.1 3.3 7.2.6.2 1.2.3 1.9.3 2.2 0 4.3-1.3 5.2-3.5l4.9-13h24.3l4.9 13c.8 2.2 2.9 3.5 5.1 3.5.7 0 1.4-.1 1.9-.3 2.9-1.1 4.3-4.3 3.3-7.2l-22.1-58.9c-.9-2.2-3-3.6-5.3-3.5zm198.632 0c-2.2-.1-4.398 1.3-5.298 3.5L444.58-87.5c-1 2.9.4 6.1 3.3 7.2.6.2 1.2.3 1.9.3 2.2 0 4.3-1.3 5.2-3.5l4.9-13h24.302l4.898 13c.8 2.2 2.902 3.5 5.102 3.5.7 0 1.398-.1 1.898-.3 2.9-1.1 4.3-4.3 3.3-7.2l-22.1-58.9c-.9-2.2-3-3.6-5.3-3.5zm-152.128.6c-1.054.034-2.118.362-3.055 1-1.5 1.1-2.3 2.9-2.2 4.6v58.2c0 3 2.4 5.5 5.5 5.5 2.9 0 5.4-2.5 5.4-5.5V-127l32 44.4c.1.2.3.4.5.6 1 1.2 2.5 2 4.1 2 3 0 5.5-2.5 5.5-5.5v-58.1c0-2.9-2.5-5.4-5.5-5.4s-5.4 2.5-5.4 5.4v41.2l-32.3-44.7c-1.063-1.5-2.79-2.258-4.545-2.2zm461.914 0c-1.054.034-2.118.362-3.055 1-1.5 1.1-2.3 2.9-2.2 4.6v58.2c0 3 2.4 5.5 5.5 5.5 2.9 0 5.4-2.5 5.4-5.5V-127l32 44.4c.1.2.3.4.5.6 1 1.2 2.5 2 4.1 2 3 0 5.5-2.5 5.5-5.5v-58.1c0-2.9-2.5-5.4-5.5-5.4s-5.4 2.5-5.4 5.4v41.2l-32.3-44.7c-1.062-1.5-2.79-2.258-4.544-2.2zm150.095.06c-1.055.053-2.11.428-3.01 1.14-2.5 1.7-3 5.1-1.3 7.6l19 25.8-19 26c-1.7 2.4-1.2 5.9 1.3 7.6.9.7 2 1.1 3.2 1.1 1.7 0 3.3-.9 4.4-2.3l16.9-23.1 16.8 23.1c1.1 1.4 2.7 2.3 4.5 2.3 1.1 0 2.2-.4 3.2-1.1 2.5-1.7 2.9-5.2 1.2-7.6l-19-26 19-25.8c1.7-2.5 1.3-5.9-1.2-7.6-2.5-1.9-5.8-1.4-7.7 1.2l-16.8 23-16.9-23c-1.063-1.625-2.828-2.43-4.59-2.34zm-326.688 8.64c6 0 11.6 2.6 15.8 7.1 4.1 4.4 6.8 10.7 6.8 17.5 0 6.8-2.7 13.1-6.8 17.4-4.2 4.5-9.8 7.2-15.8 7.2-6.4 0-12-2.7-16.2-7.2-4.2-4.3-6.8-10.6-6.8-17.4 0-6.8 2.6-13.1 6.8-17.5 4.2-4.5 9.8-7.1 16.2-7.1zm-82.342 1.7h12.3c5.7 0 10.3 4.6 10.3 10.4 0 5.6-4.6 10.2-10.3 10.2h-12.3v-20.6zM273.348-129l8.1 21.5h-16.2l8.1-21.5zm198.632 0l8.1 21.5h-16.2l8.1-21.5z" font-weight="bold" font-size="50" font-family="Quicksand" letter-spacing="0" word-spacing="0" text-anchor="middle" fill="#fff"/>
  </g>
</svg>
