<?xml version="1.0" encoding="UTF-8" standalone="no"?>
<!-- Created with Inkscape (http://www.inkscape.org/) -->

<svg
   xmlns:dc="http://purl.org/dc/elements/1.1/"
   xmlns:cc="http://creativecommons.org/ns#"
   xmlns:rdf="http://www.w3.org/1999/02/22-rdf-syntax-ns#"
   xmlns:svg="http://www.w3.org/2000/svg"
   xmlns="http://www.w3.org/2000/svg"
   xmlns:sodipodi="http://sodipodi.sourceforge.net/DTD/sodipodi-0.dtd"
   xmlns:inkscape="http://www.inkscape.org/namespaces/inkscape"
   width="2056"
   height="2056"
   viewBox="0 0 2056 2056"
   id="svg0"
   version="1.1"
   inkscape:version="0.91 r13725"
   sodipodi:docname="manjaro.svg"
   inkscape:export-xdpi="90"
   inkscape:export-ydpi="90"
   inkscape:export-filename="logo.png">
  <defs
     id="defs0" />
  <sodipodi:namedview
     id="base"
     pagecolor="#ffffff"
     bordercolor="#666666"
     borderopacity="1.0"
     inkscape:pageopacity="0.0"
     inkscape:pageshadow="2"
     inkscape:zoom="0.25"
     inkscape:cx="319.14885"
     inkscape:cy="590.46292"
     inkscape:document-units="px"
     inkscape:current-layer="layer0"
     showgrid="false"
     units="px"
     borderlayer="true"
     inkscape:object-paths="true"
     inkscape:snap-intersection-paths="true"
     inkscape:object-nodes="true"
     inkscape:snap-smooth-nodes="true"
     inkscape:snap-midpoints="true"
     inkscape:window-width="1920"
     inkscape:window-height="1002"
     inkscape:window-x="0"
     inkscape:window-y="0"
     inkscape:window-maximized="1"
     inkscape:showpageshadow="false">
    <inkscape:grid
       type="xygrid"
       id="grid4136" />
  </sodipodi:namedview>
  <metadata
     id="metadata0">
    <rdf:RDF>
      <cc:Work
         rdf:about="">
        <dc:format>image/svg+xml</dc:format>
        <dc:type
           rdf:resource="http://purl.org/dc/dcmitype/StillImage" />
        <dc:title></dc:title>
      </cc:Work>
    </rdf:RDF>
  </metadata>
  <g
     inkscape:label="Ebene 0"
     inkscape:groupmode="layer"
     id="layer0"
     transform="translate(0,1992)">
    <g
       id="logo"
       transform="matrix(4,0,0,4,0,-1032)">
      <path
         sodipodi:nodetypes="ccccccc"
         inkscape:connector-curvature="0"
         id="rect4138"
         d="m 0,0 0,64 18,0 0,-46 23,0 0,-18 z"
         style="opacity:1;fill:#35bf5c;fill-opacity:1;stroke:none;stroke-width:3;stroke-miterlimit:4;stroke-dasharray:none;stroke-opacity:1" />
      <path
         sodipodi:nodetypes="ccccc"
         inkscape:connector-curvature="0"
         id="rect4140"
         d="m 22.999999,23 2e-6,41 L 41,64 41,23 Z"
         style="opacity:1;fill:#35bf5c;fill-opacity:1;stroke:none;stroke-width:3;stroke-miterlimit:4;stroke-dasharray:none;stroke-opacity:1" />
      <path
         sodipodi:nodetypes="ccccc"
         inkscape:connector-curvature="0"
         id="rect4142"
         d="M 46,1e-6 46,64 64,64 64,1e-6 Z"
         style="opacity:1;fill:#35bf5c;fill-opacity:1;stroke:none;stroke-width:3;stroke-miterlimit:4;stroke-dasharray:none;stroke-opacity:1" />
    </g>
    <g
       transform="matrix(4,0,0,4,0,-1312)"
       id="g4171"
       inkscape:export-filename="manjarobrown.png"
       inkscape:export-xdpi="90"
       inkscape:export-ydpi="90">
      <path
         style="opacity:1;fill:#a88a60;fill-opacity:1;stroke:none;stroke-width:3;stroke-miterlimit:4;stroke-dasharray:none;stroke-opacity:1"
         d="m 0,0 0,64 18,0 0,-46 23,0 0,-18 z"
         id="path4173"
         inkscape:connector-curvature="0"
         sodipodi:nodetypes="ccccccc" />
      <path
         style="opacity:1;fill:#a88a60;fill-opacity:1;stroke:none;stroke-width:3;stroke-miterlimit:4;stroke-dasharray:none;stroke-opacity:1"
         d="m 22.999999,23 2e-6,41 L 41,64 41,23 Z"
         id="path4175"
         inkscape:connector-curvature="0"
         sodipodi:nodetypes="ccccc" />
      <path
         style="opacity:1;fill:#a88a60;fill-opacity:1;stroke:none;stroke-width:3;stroke-miterlimit:4;stroke-dasharray:none;stroke-opacity:1"
         d="M 46,1e-6 46,64 64,64 64,1e-6 Z"
         id="path4177"
         inkscape:connector-curvature="0"
         sodipodi:nodetypes="ccccc" />
    </g>
    <g
       id="g4179"
       transform="matrix(4,0,0,4,0,-1592)"
       inkscape:export-filename="manjaroorange.png"
       inkscape:export-xdpi="90"
       inkscape:export-ydpi="90">
      <path
         sodipodi:nodetypes="ccccccc"
         inkscape:connector-curvature="0"
         id="path4181"
         d="m 0,0 0,64 18,0 0,-46 23,0 0,-18 z"
         style="opacity:1;fill:#fb900f;fill-opacity:1;stroke:none;stroke-width:3;stroke-miterlimit:4;stroke-dasharray:none;stroke-opacity:1" />
      <path
         sodipodi:nodetypes="ccccc"
         inkscape:connector-curvature="0"
         id="path4183"
         d="m 22.999999,23 2e-6,41 L 41,64 41,23 Z"
         style="opacity:1;fill:#fb900f;fill-opacity:1;stroke:none;stroke-width:3;stroke-miterlimit:4;stroke-dasharray:none;stroke-opacity:1" />
      <path
         sodipodi:nodetypes="ccccc"
         inkscape:connector-curvature="0"
         id="path4185"
         d="M 46,1e-6 46,64 64,64 64,1e-6 Z"
         style="opacity:1;fill:#fb900f;fill-opacity:1;stroke:none;stroke-width:3;stroke-miterlimit:4;stroke-dasharray:none;stroke-opacity:1" />
    </g>
    <g
       transform="matrix(4,0,0,4,0,-1872)"
       id="g4187"
       inkscape:export-filename="manjaropink.png"
       inkscape:export-xdpi="90"
       inkscape:export-ydpi="90">
      <path
         style="opacity:1;fill:#d649a0;fill-opacity:1;stroke:none;stroke-width:3;stroke-miterlimit:4;stroke-dasharray:none;stroke-opacity:1"
         d="m 0,0 0,64 18,0 0,-46 23,0 0,-18 z"
         id="path4189"
         inkscape:connector-curvature="0"
         sodipodi:nodetypes="ccccccc" />
      <path
         style="opacity:1;fill:#d649a0;fill-opacity:1;stroke:none;stroke-width:3;stroke-miterlimit:4;stroke-dasharray:none;stroke-opacity:1"
         d="m 22.999999,23 2e-6,41 L 41,64 41,23 Z"
         id="path4191"
         inkscape:connector-curvature="0"
         sodipodi:nodetypes="ccccc" />
      <path
         style="opacity:1;fill:#d649a0;fill-opacity:1;stroke:none;stroke-width:3;stroke-miterlimit:4;stroke-dasharray:none;stroke-opacity:1"
         d="M 46,1e-6 46,64 64,64 64,1e-6 Z"
         id="path4193"
         inkscape:connector-curvature="0"
         sodipodi:nodetypes="ccccc" />
    </g>
    <g
       id="g4289"
       inkscape:export-filename="blue/manjaroblue.png"
       inkscape:export-xdpi="90"
       inkscape:export-ydpi="90"
       transform="translate(0,-840)">
      <path
         style="opacity:1;fill:#5faeae;fill-opacity:1;stroke:none;stroke-width:3;stroke-miterlimit:4;stroke-dasharray:none;stroke-opacity:1"
         d="m 0,88 0,256 72,0 0,-184 92,0 0,-72 z"
         id="path4274"
         inkscape:connector-curvature="0"
         sodipodi:nodetypes="ccccccc" />
      <path
         style="opacity:1;fill:#5faeae;fill-opacity:1;stroke:none;stroke-width:3;stroke-miterlimit:4;stroke-dasharray:none;stroke-opacity:1"
         d="m 91.999996,180 8e-6,164 L 164,344 164,180 Z"
         id="path4276"
         inkscape:connector-curvature="0"
         sodipodi:nodetypes="ccccc" />
      <path
         style="opacity:1;fill:#5faeae;fill-opacity:1;stroke:none;stroke-width:3;stroke-miterlimit:4;stroke-dasharray:none;stroke-opacity:1"
         d="M 184,88.000004 184,344 l 72,0 0,-255.999996 z"
         id="path4278"
         inkscape:connector-curvature="0"
         sodipodi:nodetypes="ccccc" />
    </g>
    <g
       id="g4332"
       inkscape:export-filename="blue/darkblue.png"
       inkscape:export-xdpi="90"
       inkscape:export-ydpi="90"
       transform="translate(0,-840)">
      <path
         sodipodi:nodetypes="ccccccc"
         inkscape:connector-curvature="0"
         id="path4283"
         d="m 300,88 0,256 72,0 0,-184 92,0 0,-72 z"
         style="opacity:1;fill:#0934ec;fill-opacity:1;stroke:none;stroke-width:3;stroke-miterlimit:4;stroke-dasharray:none;stroke-opacity:1" />
      <path
         sodipodi:nodetypes="ccccc"
         inkscape:connector-curvature="0"
         id="path4285"
         d="m 392,180 0,164 72,0 0,-164 z"
         style="opacity:1;fill:#0934ec;fill-opacity:1;stroke:none;stroke-width:3;stroke-miterlimit:4;stroke-dasharray:none;stroke-opacity:1" />
      <path
         sodipodi:nodetypes="ccccc"
         inkscape:connector-curvature="0"
         id="path4287"
         d="M 484,88.000004 484,344 l 72,0 0,-255.999996 z"
         style="opacity:1;fill:#0934ec;fill-opacity:1;stroke:none;stroke-width:3;stroke-miterlimit:4;stroke-dasharray:none;stroke-opacity:1" />
    </g>
    <g
       id="g4337"
       inkscape:export-filename="blue/turquoise.png"
       inkscape:export-xdpi="90"
       inkscape:export-ydpi="90"
       transform="translate(0,-840)">
      <path
         sodipodi:nodetypes="ccccccc"
         inkscape:connector-curvature="0"
         id="path4296"
         d="m 600,88 0,256 72,0 0,-184 92,0 0,-72 z"
         style="opacity:1;fill:#00aab0;fill-opacity:1;stroke:none;stroke-width:3;stroke-miterlimit:4;stroke-dasharray:none;stroke-opacity:1" />
      <path
         sodipodi:nodetypes="ccccc"
         inkscape:connector-curvature="0"
         id="path4298"
         d="m 692,180 0,164 72,0 0,-164 z"
         style="opacity:1;fill:#00aab0;fill-opacity:1;stroke:none;stroke-width:3;stroke-miterlimit:4;stroke-dasharray:none;stroke-opacity:1" />
      <path
         sodipodi:nodetypes="ccccc"
         inkscape:connector-curvature="0"
         id="path4300"
         d="M 784,88.000004 784,344 l 72,0 0,-255.999996 z"
         style="opacity:1;fill:#00aab0;fill-opacity:1;stroke:none;stroke-width:3;stroke-miterlimit:4;stroke-dasharray:none;stroke-opacity:1" />
    </g>
    <g
       id="g4343"
       inkscape:export-filename="blue/greyblue.png"
       inkscape:export-xdpi="90"
       inkscape:export-ydpi="90"
       transform="translate(0,-840)">
      <path
         style="opacity:1;fill:#5a56cd;fill-opacity:1;stroke:none;stroke-width:3;stroke-miterlimit:4;stroke-dasharray:none;stroke-opacity:1"
         d="m 900,88 0,256 72,0 0,-184 92,0 0,-72 z"
         id="path4304"
         inkscape:connector-curvature="0"
         sodipodi:nodetypes="ccccccc" />
      <path
         style="opacity:1;fill:#5a56cd;fill-opacity:1;stroke:none;stroke-width:3;stroke-miterlimit:4;stroke-dasharray:none;stroke-opacity:1"
         d="m 992,180 0,164 72,0 0,-164 z"
         id="path4306"
         inkscape:connector-curvature="0"
         sodipodi:nodetypes="ccccc" />
      <path
         style="opacity:1;fill:#5a56cd;fill-opacity:1;stroke:none;stroke-width:3;stroke-miterlimit:4;stroke-dasharray:none;stroke-opacity:1"
         d="M 1084,88.000004 1084,344 l 72,0 0,-255.999996 z"
         id="path4308"
         inkscape:connector-curvature="0"
         sodipodi:nodetypes="ccccc" />
    </g>
    <g
       id="g4349"
       inkscape:export-filename="blue/blueish.png"
       inkscape:export-xdpi="90"
       inkscape:export-ydpi="90"
       transform="translate(0,-840)">
      <path
         style="opacity:1;fill:#70dede;fill-opacity:1;stroke:none;stroke-width:3;stroke-miterlimit:4;stroke-dasharray:none;stroke-opacity:1"
         d="m 1200,88 0,256 72,0 0,-184 92,0 0,-72 z"
         id="path4310"
         inkscape:connector-curvature="0"
         sodipodi:nodetypes="ccccccc" />
      <path
         style="opacity:1;fill:#70dede;fill-opacity:1;stroke:none;stroke-width:3;stroke-miterlimit:4;stroke-dasharray:none;stroke-opacity:1"
         d="m 1292,180 0,164 72,0 0,-164 z"
         id="path4312"
         inkscape:connector-curvature="0"
         sodipodi:nodetypes="ccccc" />
      <path
         style="opacity:1;fill:#70dede;fill-opacity:1;stroke:none;stroke-width:3;stroke-miterlimit:4;stroke-dasharray:none;stroke-opacity:1"
         d="M 1384,88.000004 1384,344 l 72,0 0,-255.999996 z"
         id="path4314"
         inkscape:connector-curvature="0"
         sodipodi:nodetypes="ccccc" />
    </g>
    <g
       id="g4354"
       inkscape:export-filename="blue/manjaro-softblue.png"
       inkscape:export-xdpi="90"
       inkscape:export-ydpi="90"
       transform="translate(0,-840)">
      <path
         style="opacity:1;fill:#6b8aa7;fill-opacity:1;stroke:none;stroke-width:3;stroke-miterlimit:4;stroke-dasharray:none;stroke-opacity:1"
         d="m 1500,88 0,256 72,0 0,-184 92,0 0,-72 z"
         id="path4318"
         inkscape:connector-curvature="0"
         sodipodi:nodetypes="ccccccc" />
      <path
         style="opacity:1;fill:#6b8aa7;fill-opacity:1;stroke:none;stroke-width:3;stroke-miterlimit:4;stroke-dasharray:none;stroke-opacity:1"
         d="m 1592,180 0,164 72,0 0,-164 z"
         id="path4320"
         inkscape:connector-curvature="0"
         sodipodi:nodetypes="ccccc" />
      <path
         style="opacity:1;fill:#6b8aa7;fill-opacity:1;stroke:none;stroke-width:3;stroke-miterlimit:4;stroke-dasharray:none;stroke-opacity:1"
         d="M 1684,88.000004 1684,344 l 72,0 0,-255.999996 z"
         id="path4322"
         inkscape:connector-curvature="0"
         sodipodi:nodetypes="ccccc" />
    </g>
    <g
       id="g4360"
       inkscape:export-filename="blue/darkerblue.png"
       inkscape:export-xdpi="90"
       inkscape:export-ydpi="90"
       transform="translate(0,-840)">
      <path
         sodipodi:nodetypes="ccccccc"
         inkscape:connector-curvature="0"
         id="path4326"
         d="m 1800,88 0,256 72,0 0,-184 92,0 0,-72 z"
         style="opacity:1;fill:#00003e;fill-opacity:1;stroke:none;stroke-width:3;stroke-miterlimit:4;stroke-dasharray:none;stroke-opacity:1" />
      <path
         sodipodi:nodetypes="ccccc"
         inkscape:connector-curvature="0"
         id="path4328"
         d="m 1892,180 0,164 72,0 0,-164 z"
         style="opacity:1;fill:#00003e;fill-opacity:1;stroke:none;stroke-width:3;stroke-miterlimit:4;stroke-dasharray:none;stroke-opacity:1" />
      <path
         sodipodi:nodetypes="ccccc"
         inkscape:connector-curvature="0"
         id="path4330"
         d="M 1984,88.000004 1984,344 l 72,0 0,-255.999996 z"
         style="opacity:1;fill:#00003e;fill-opacity:1;stroke:none;stroke-width:3;stroke-miterlimit:4;stroke-dasharray:none;stroke-opacity:1" />
    </g>
    <g
       id="g4509"
       inkscape:export-filename="green/manjaro-kawagreen.png"
       inkscape:export-xdpi="90"
       inkscape:export-ydpi="90"
       transform="translate(0,-840)">
      <path
         sodipodi:nodetypes="ccccccc"
         inkscape:connector-curvature="0"
         id="path4368"
         d="m 0,368 0,256 72,0 0,-184 92,0 0,-72 z"
         style="opacity:1;fill:#35d30a;fill-opacity:1;stroke:none;stroke-width:3;stroke-miterlimit:4;stroke-dasharray:none;stroke-opacity:1" />
      <path
         sodipodi:nodetypes="ccccc"
         inkscape:connector-curvature="0"
         id="path4370"
         d="m 91.999996,460 8e-6,164 L 164,624 164,460 Z"
         style="opacity:1;fill:#35d30a;fill-opacity:1;stroke:none;stroke-width:3;stroke-miterlimit:4;stroke-dasharray:none;stroke-opacity:1" />
      <path
         sodipodi:nodetypes="ccccc"
         inkscape:connector-curvature="0"
         id="path4372"
         d="m 184,368 0,256 72,0 0,-256 z"
         style="opacity:1;fill:#35d30a;fill-opacity:1;stroke:none;stroke-width:3;stroke-miterlimit:4;stroke-dasharray:none;stroke-opacity:1" />
    </g>
    <g
       id="g4504"
       inkscape:export-filename="green/olive-green.png"
       inkscape:export-xdpi="90"
       inkscape:export-ydpi="90"
       transform="translate(0,-840)">
      <path
         style="opacity:1;fill:#6b8e23;fill-opacity:1;stroke:none;stroke-width:3;stroke-miterlimit:4;stroke-dasharray:none;stroke-opacity:1"
         d="m 300,368 0,256 72,0 0,-184 92,0 0,-72 z"
         id="path4376"
         inkscape:connector-curvature="0"
         sodipodi:nodetypes="ccccccc" />
      <path
         style="opacity:1;fill:#6b8e23;fill-opacity:1;stroke:none;stroke-width:3;stroke-miterlimit:4;stroke-dasharray:none;stroke-opacity:1"
         d="m 392,460 0,164 72,0 0,-164 z"
         id="path4378"
         inkscape:connector-curvature="0"
         sodipodi:nodetypes="ccccc" />
      <path
         style="opacity:1;fill:#6b8e23;fill-opacity:1;stroke:none;stroke-width:3;stroke-miterlimit:4;stroke-dasharray:none;stroke-opacity:1"
         d="m 484,368 0,256 72,0 0,-256 z"
         id="path4380"
         inkscape:connector-curvature="0"
         sodipodi:nodetypes="ccccc" />
    </g>
    <g
       id="g4499"
       inkscape:export-filename="green/manjarogreen.png"
       inkscape:export-xdpi="90"
       inkscape:export-ydpi="90"
       transform="translate(0,-840)">
      <path
         style="opacity:1;fill:#9ac62b;fill-opacity:1;stroke:none;stroke-width:3;stroke-miterlimit:4;stroke-dasharray:none;stroke-opacity:1"
         d="m 600,368 0,256 72,0 0,-184 92,0 0,-72 z"
         id="path4386"
         inkscape:connector-curvature="0"
         sodipodi:nodetypes="ccccccc" />
      <path
         style="opacity:1;fill:#9ac62b;fill-opacity:1;stroke:none;stroke-width:3;stroke-miterlimit:4;stroke-dasharray:none;stroke-opacity:1"
         d="m 692,460 0,164 72,0 0,-164 z"
         id="path4388"
         inkscape:connector-curvature="0"
         sodipodi:nodetypes="ccccc" />
      <path
         style="opacity:1;fill:#9ac62b;fill-opacity:1;stroke:none;stroke-width:3;stroke-miterlimit:4;stroke-dasharray:none;stroke-opacity:1"
         d="m 784,368 0,256 72,0 0,-256 z"
         id="path4390"
         inkscape:connector-curvature="0"
         sodipodi:nodetypes="ccccc" />
    </g>
    <g
       id="g4494"
       inkscape:export-filename="green/manjaro-leafgreen.png"
       inkscape:export-xdpi="90"
       inkscape:export-ydpi="90"
       transform="translate(0,-840)">
      <path
         sodipodi:nodetypes="ccccccc"
         inkscape:connector-curvature="0"
         id="path4396"
         d="m 900,368 0,256 72,0 0,-184 92,0 0,-72 z"
         style="opacity:1;fill:#7dbc13;fill-opacity:1;stroke:none;stroke-width:3;stroke-miterlimit:4;stroke-dasharray:none;stroke-opacity:1" />
      <path
         sodipodi:nodetypes="ccccc"
         inkscape:connector-curvature="0"
         id="path4398"
         d="m 992,460 0,164 72,0 0,-164 z"
         style="opacity:1;fill:#7dbc13;fill-opacity:1;stroke:none;stroke-width:3;stroke-miterlimit:4;stroke-dasharray:none;stroke-opacity:1" />
      <path
         sodipodi:nodetypes="ccccc"
         inkscape:connector-curvature="0"
         id="path4400"
         d="m 1084,368 0,256 72,0 0,-256 z"
         style="opacity:1;fill:#7dbc13;fill-opacity:1;stroke:none;stroke-width:3;stroke-miterlimit:4;stroke-dasharray:none;stroke-opacity:1" />
    </g>
    <g
       id="g4678"
       inkscape:export-filename="grey/ashgrey.png"
       inkscape:export-xdpi="90"
       inkscape:export-ydpi="90"
       transform="translate(0,-840)">
      <path
         sodipodi:nodetypes="ccccccc"
         inkscape:connector-curvature="0"
         id="path4594"
         d="m 0,648 0,256 72,0 0,-184 92,0 0,-72 z"
         style="opacity:1;fill:#b2beb5;fill-opacity:1;stroke:none;stroke-width:3;stroke-miterlimit:4;stroke-dasharray:none;stroke-opacity:1" />
      <path
         sodipodi:nodetypes="ccccc"
         inkscape:connector-curvature="0"
         id="path4596"
         d="m 91.999996,740 8e-6,164 L 164,904 164,740 Z"
         style="opacity:1;fill:#b2beb5;fill-opacity:1;stroke:none;stroke-width:3;stroke-miterlimit:4;stroke-dasharray:none;stroke-opacity:1" />
      <path
         sodipodi:nodetypes="ccccc"
         inkscape:connector-curvature="0"
         id="path4598"
         d="m 184,648 0,256 72,0 0,-256 z"
         style="opacity:1;fill:#b2beb5;fill-opacity:1;stroke:none;stroke-width:3;stroke-miterlimit:4;stroke-dasharray:none;stroke-opacity:1" />
    </g>
    <g
       id="g4673"
       inkscape:export-filename="grey/darkgray.png"
       inkscape:export-xdpi="90"
       inkscape:export-ydpi="90"
       transform="translate(0,-840)">
      <path
         style="opacity:1;fill:#333333;fill-opacity:1;stroke:none;stroke-width:3;stroke-miterlimit:4;stroke-dasharray:none;stroke-opacity:1"
         d="m 300,648 0,256 72,0 0,-184 92,0 0,-72 z"
         id="path4602"
         inkscape:connector-curvature="0"
         sodipodi:nodetypes="ccccccc" />
      <path
         style="opacity:1;fill:#333333;fill-opacity:1;stroke:none;stroke-width:3;stroke-miterlimit:4;stroke-dasharray:none;stroke-opacity:1"
         d="m 392,740 0,164 72,0 0,-164 z"
         id="path4604"
         inkscape:connector-curvature="0"
         sodipodi:nodetypes="ccccc" />
      <path
         style="opacity:1;fill:#333333;fill-opacity:1;stroke:none;stroke-width:3;stroke-miterlimit:4;stroke-dasharray:none;stroke-opacity:1"
         d="m 484,648 0,256 72,0 0,-256 z"
         id="path4606"
         inkscape:connector-curvature="0"
         sodipodi:nodetypes="ccccc" />
    </g>
    <g
       id="g4668"
       inkscape:export-filename="grey/lightgray.png"
       inkscape:export-xdpi="90"
       inkscape:export-ydpi="90"
       transform="translate(0,-840)">
      <path
         style="opacity:1;fill:#b2b2b2;fill-opacity:1;stroke:none;stroke-width:3;stroke-miterlimit:4;stroke-dasharray:none;stroke-opacity:1"
         d="m 600,648 0,256 72,0 0,-184 92,0 0,-72 z"
         id="path4610"
         inkscape:connector-curvature="0"
         sodipodi:nodetypes="ccccccc" />
      <path
         style="opacity:1;fill:#b2b2b2;fill-opacity:1;stroke:none;stroke-width:3;stroke-miterlimit:4;stroke-dasharray:none;stroke-opacity:1"
         d="m 692,740 0,164 72,0 0,-164 z"
         id="path4612"
         inkscape:connector-curvature="0"
         sodipodi:nodetypes="ccccc" />
      <path
         style="opacity:1;fill:#b2b2b2;fill-opacity:1;stroke:none;stroke-width:3;stroke-miterlimit:4;stroke-dasharray:none;stroke-opacity:1"
         d="m 784,648 0,256 72,0 0,-256 z"
         id="path4614"
         inkscape:connector-curvature="0"
         sodipodi:nodetypes="ccccc" />
    </g>
    <g
       id="g4663"
       inkscape:export-filename="grey/manjarogrey.png"
       inkscape:export-xdpi="90"
       inkscape:export-ydpi="90"
       transform="translate(0,-840)">
      <path
         sodipodi:nodetypes="ccccccc"
         inkscape:connector-curvature="0"
         id="path4618"
         d="m 900,648 0,256 72,0 0,-184 92,0 0,-72 z"
         style="opacity:1;fill:#999999;fill-opacity:1;stroke:none;stroke-width:3;stroke-miterlimit:4;stroke-dasharray:none;stroke-opacity:1" />
      <path
         sodipodi:nodetypes="ccccc"
         inkscape:connector-curvature="0"
         id="path4620"
         d="m 992,740 0,164 72,0 0,-164 z"
         style="opacity:1;fill:#999999;fill-opacity:1;stroke:none;stroke-width:3;stroke-miterlimit:4;stroke-dasharray:none;stroke-opacity:1" />
      <path
         sodipodi:nodetypes="ccccc"
         inkscape:connector-curvature="0"
         id="path4622"
         d="m 1084,648 0,256 72,0 0,-256 z"
         style="opacity:1;fill:#999999;fill-opacity:1;stroke:none;stroke-width:3;stroke-miterlimit:4;stroke-dasharray:none;stroke-opacity:1" />
    </g>
    <g
       id="g4658"
       inkscape:export-filename="grey/paynesgray.png"
       inkscape:export-xdpi="90"
       inkscape:export-ydpi="90"
       transform="translate(0,-840)">
      <path
         sodipodi:nodetypes="ccccccc"
         inkscape:connector-curvature="0"
         id="path4626"
         d="m 1200,648 0,256 72,0 0,-184 92,0 0,-72 z"
         style="opacity:1;fill:#293c42;fill-opacity:1;stroke:none;stroke-width:3;stroke-miterlimit:4;stroke-dasharray:none;stroke-opacity:1" />
      <path
         sodipodi:nodetypes="ccccc"
         inkscape:connector-curvature="0"
         id="path4628"
         d="m 1292,740 0,164 72,0 0,-164 z"
         style="opacity:1;fill:#293c42;fill-opacity:1;stroke:none;stroke-width:3;stroke-miterlimit:4;stroke-dasharray:none;stroke-opacity:1" />
      <path
         sodipodi:nodetypes="ccccc"
         inkscape:connector-curvature="0"
         id="path4630"
         d="m 1384,648 0,256 72,0 0,-256 z"
         style="opacity:1;fill:#293c42;fill-opacity:1;stroke:none;stroke-width:3;stroke-miterlimit:4;stroke-dasharray:none;stroke-opacity:1" />
    </g>
  </g>
</svg>
